<svg width="70" height="70" viewBox="0 0 70 70" fill="none" xmlns="http://www.w3.org/2000/svg">
<path d="M35.2915 0.0618896C55.4169 0.0618896 70 16.4809 70 34.7011C70 40.5205 68.3027 46.513 65.3237 51.986C64.7695 52.8867 64.7002 54.0297 65.0812 55.1036L67.4021 62.8627C67.9216 64.7332 66.3282 66.1188 64.5616 65.5646L57.5645 63.4862C55.6594 62.8627 54.1699 63.6594 52.3998 64.7333C47.3425 67.7122 41.0416 69.2363 35.3608 69.2363C18.1798 69.2363 0.721626 55.9695 0.721626 34.5972C0.721626 16.1691 15.6165 0.0618896 35.2915 0.0618896Z" fill="url(#paint0_linear_1_55)"/>
<defs>
<linearGradient id="paint0_linear_1_55" x1="35.3608" y1="0.0618896" x2="35.3608" y2="69.2363" gradientUnits="userSpaceOnUse">
<stop stop-color="#A4C8FF"/>
<stop offset="1" stop-color="#3685FB"/>
</linearGradient>
</defs>
</svg>
