<svg width="70" height="72" viewBox="0 0 70 72" fill="none" xmlns="http://www.w3.org/2000/svg">
<path d="M59.9428 33.2614C59.3801 34.4216 59.4248 35.7866 60.0588 36.9101L69.0685 52.348C69.831 53.6569 69.7565 55.2899 68.8792 56.5267C68.0365 57.7851 66.5449 58.443 65.0471 58.2278L47.342 55.891C46.7243 55.8041 46.0961 55.8656 45.5021 56.0631L44.5918 56.3949C44.2932 56.557 44.0209 56.7704 43.7951 57.0277L31.7563 70.2476C31.1554 70.8853 30.3701 71.3199 29.5061 71.4864C27.3804 71.835 25.3631 70.4241 24.9605 68.3067L21.9264 50.6908C21.6851 49.4127 20.8385 48.3324 19.6563 47.7929L3.24192 40.4574C1.86878 39.8429 0.977389 38.4935 0.954883 36.991C0.920165 35.4968 1.71512 34.1073 3.02281 33.3834L18.8343 24.8768C20.0563 24.283 20.8899 23.1039 21.0446 21.7537L22.9037 3.99061C22.956 3.59104 23.0684 3.19999 23.245 2.83882L23.4616 2.4935C23.5558 2.26129 23.6845 2.05074 23.8432 1.85972L24.1604 1.59191L24.6457 1.14865L26.0598 0.633215C27.3706 0.303878 28.7579 0.654409 29.7503 1.57123L42.6766 13.8692C43.6144 14.7717 44.937 15.1535 46.2102 14.8987L63.7871 11.2358C65.2714 10.9231 66.8054 11.4675 67.762 12.6409C68.693 13.8275 68.8521 15.4438 68.1714 16.7916L59.9428 33.2614Z" fill="url(#paint0_linear_1_106)"/>
<defs>
<linearGradient id="paint0_linear_1_106" x1="5.58029" y1="27.8538" x2="79.3535" y2="96.9751" gradientUnits="userSpaceOnUse">
<stop stop-color="#FFA78F"/>
<stop offset="1" stop-color="#F23E2C"/>
</linearGradient>
</defs>
</svg>
